<?xml version="1.0" standalone="no"?>
<!DOCTYPE svg PUBLIC "-//W3C//DTD SVG 20010904//EN"
 "http://www.w3.org/TR/2001/REC-SVG-20010904/DTD/svg10.dtd">
<svg version="1.0" xmlns="http://www.w3.org/2000/svg"
 width="512.000000pt" height="512.000000pt" viewBox="0 0 512.000000 512.000000"
 preserveAspectRatio="xMidYMid meet">
<metadata>
Created by potrace 1.11, written by Peter Selinger 2001-2013
</metadata>
<g transform="translate(0.000000,512.000000) scale(0.100000,-0.100000)"
fill="#000000" stroke="none">
<path d="M2284 4707 c6 -5 1 -7 -13 -4 -13 3 -31 2 -40 -3 -9 -5 -47 -19 -86
-31 -412 -129 -703 -537 -770 -1078 -14 -120 -17 -351 -4 -456 5 -38 11 -92
15 -120 20 -165 142 -598 214 -760 5 -11 21 -49 36 -85 25 -62 35 -85 85 -197
100 -222 294 -577 452 -828 160 -252 162 -255 199 -255 l27 0 -25 67 c-49 128
-182 538 -223 683 -23 80 -45 159 -50 175 -38 117 -152 633 -176 790 -3 22
-10 67 -15 100 -5 33 -11 83 -14 110 -3 28 -9 72 -12 99 -12 98 -14 136 -18
376 -2 156 1 292 9 375 12 114 18 162 41 300 3 17 12 57 20 90 97 372 251 599
444 655 16 5 1 7 -41 6 -39 0 -62 -5 -55 -9z"/>
<path d="M2402 4707 c-134 -120 -201 -263 -260 -552 -24 -116 -33 -178 -48
-319 -25 -240 -25 -874 1 -1036 2 -14 6 -56 10 -95 3 -38 8 -88 11 -110 2 -22
7 -56 9 -75 9 -81 18 -146 21 -165 2 -11 6 -42 9 -70 3 -27 7 -60 10 -73 2
-13 9 -56 14 -95 6 -40 13 -82 15 -93 2 -12 7 -39 11 -60 13 -85 16 -102 31
-184 42 -229 105 -521 177 -830 l12 -55 46 -3 c35 -2 48 1 53 13 9 24 51 205
101 435 18 84 57 274 61 296 2 16 9 52 14 79 5 28 12 64 15 80 3 17 7 39 9 50
5 24 63 386 70 435 3 19 8 58 11 85 4 28 8 61 11 75 2 14 6 56 10 94 3 38 7
76 9 85 2 9 6 50 10 91 3 41 8 93 10 115 25 244 25 858 0 1017 -2 13 -6 50 -9
83 -3 33 -8 69 -10 80 -2 11 -7 43 -10 70 -13 90 -17 109 -42 209 -51 203
-121 340 -207 404 -44 32 -12 28 60 -8 150 -75 274 -264 347 -531 18 -68 36
-142 40 -164 3 -22 8 -51 11 -65 24 -117 39 -346 39 -585 0 -154 -11 -382 -19
-394 -2 -4 -6 -41 -9 -84 -10 -126 -69 -456 -131 -727 -13 -58 -87 -351 -95
-375 -6 -16 -35 -113 -65 -215 -45 -152 -183 -567 -210 -632 -6 -15 1 -17 60
-17 l66 0 208 207 c114 114 231 234 261 268 30 33 71 78 90 100 322 357 593
743 759 1079 165 335 224 559 216 825 -6 177 -8 196 -45 339 -56 213 -154 385
-310 541 -109 110 -249 208 -396 276 -97 46 -274 109 -336 119 -17 3 -35 8
-39 11 -5 3 -21 7 -36 9 -16 2 -39 6 -53 10 -14 3 -45 8 -70 11 -25 3 -63 9
-86 13 -22 4 -68 7 -101 7 -34 -1 -60 1 -58 4 7 11 -260 8 -273 -3z m388 -18
c25 -6 54 -13 66 -15 26 -5 142 -41 169 -53 70 -29 186 -91 220 -116 22 -17
53 -38 68 -48 55 -36 184 -175 239 -258 75 -114 155 -290 174 -382 2 -10 6
-27 9 -37 3 -10 8 -29 10 -42 3 -13 9 -45 15 -73 18 -96 24 -171 25 -320 0
-190 -8 -253 -56 -455 -35 -147 -82 -289 -151 -455 -53 -128 -199 -425 -242
-493 -14 -23 -26 -44 -26 -46 0 -17 -316 -511 -370 -579 -5 -7 -70 -93 -144
-192 -157 -209 -175 -230 -182 -222 -3 3 30 59 74 124 43 65 118 183 165 263
48 80 90 150 94 156 5 5 16 26 27 45 10 19 37 68 59 109 55 101 186 367 227
460 18 41 40 93 50 115 81 183 201 561 224 710 3 19 10 54 15 77 30 133 42
389 27 543 -13 130 -17 160 -38 260 -39 191 -113 374 -209 518 -60 88 -201
225 -292 281 -79 49 -186 95 -280 121 -61 16 -33 20 33 4z"/>
<path d="M2058 4689 c-732 -127 -1218 -558 -1305 -1154 -15 -105 -9 -351 11
-445 3 -14 11 -49 17 -78 11 -55 61 -209 97 -298 117 -293 377 -702 673 -1061
62 -75 67 -82 208 -243 36 -41 165 -175 287 -297 156 -157 228 -223 243 -223
21 0 19 4 -19 53 -139 173 -265 346 -397 547 -53 80 -111 168 -129 196 -19 28
-34 54 -34 58 0 4 -13 26 -28 49 -16 23 -32 49 -35 57 -4 8 -17 31 -29 50 -11
19 -60 112 -108 205 -176 344 -295 678 -335 945 -3 19 -9 60 -14 90 -10 58 -7
381 3 440 24 134 59 269 86 335 92 226 215 395 390 536 117 93 333 199 473
229 31 7 57 17 57 22 0 4 -1 8 -2 7 -2 -1 -51 -9 -110 -20z"/>
<path d="M2193 4703 c9 -2 23 -2 30 0 6 3 -1 5 -18 5 -16 0 -22 -2 -12 -5z"/>
<path d="M2320 802 c-6 -2 -10 -12 -10 -22 0 -16 12 -18 161 -18 155 0 160 1
157 21 -3 19 -11 20 -151 21 -81 1 -152 0 -157 -2z"/>
<path d="M2225 701 c-10 -17 -6 -354 4 -360 8 -5 404 -7 474 -2 16 1 17 15 15
184 l-3 182 -242 3 c-149 1 -244 -1 -248 -7z"/>
</g>
</svg>
