<svg xmlns="http://www.w3.org/2000/svg" width="60" height="60" viewBox="0 0 200 200" fill="#010101"><path d="M140.9 95.1c5.7-.7-20.8-43.9-46-57.6C79.4 22.9 83.3 6.3 98.8 2.2c14.3-4.5 34.3 6.5 46.9 29 19.3 29.5-.9 68.2-4.8 63.9zm-21.2 47.8c2.4 5.3 35.3-33.3 40.6-61.5 9.1-19.3 26.1-20.8 34.7-7.3 8.7 12.3 4.4 34.6-13.1 53.5-22 27.6-65 20.4-62.2 15.3zm-52-5.3c-4.3 3.9 42.6 23.3 71.1 19.6 21.1 2.7 27.8 18.4 17.7 30.8-9 12.1-31.5 14.9-55 4.1-33-12.6-39.4-55.7-33.8-54.5zM56.8 86.4c-5-2.8-9 47.7 3.3 73.6 4 20.9-8.9 32.2-23.8 26.3-14.2-4.8-23.9-25.4-20.9-51 1.7-35.2 40.7-54.6 41.4-48.9zM102 60.2c1.1-5.7-48.1 6.2-69 25.9C14.3 96.4-.3 87.6.6 71.6.8 56.6 17.4 41 42.7 36c34-9.3 64.6 21.8 59.3 24.2z"/></svg>
