<svg fill="currentColor" xmlns="http://www.w3.org/2000/svg" width="32" height="32" viewBox="0 0 512 512" xml:space="preserve"><path d="M6.979 271.181c30.288 25.979 64.616 55.426 131.017 55.426 66.403-.001 100.733-29.447 131.022-55.426 28.644-24.568 53.382-45.787 104.98-45.787 51.599 0 76.337 21.219 104.98 45.787 8.385 7.191 21.011 6.225 28.202-2.159 7.191-8.385 6.225-21.011-2.16-28.202-30.289-25.979-64.619-55.426-131.022-55.426S273.265 214.84 242.976 240.82c-28.644 24.568-53.382 45.787-104.98 45.787-51.597 0-76.332-21.218-104.974-45.787-8.384-7.191-21.01-6.226-28.202 2.159-7.192 8.384-6.225 21.011 2.159 28.202z"/><path d="M6.979 161.787c30.287 25.98 64.615 55.426 131.017 55.426 66.403 0 100.733-29.446 131.022-55.426C297.662 137.219 322.399 116 373.998 116c51.597 0 76.335 21.218 104.98 45.787 8.385 7.193 21.01 6.224 28.201-2.161 7.192-8.384 6.223-21.012-2.161-28.202C474.729 105.444 440.399 76 373.998 76c-66.403 0-100.733 29.446-131.022 55.426-28.644 24.568-53.382 45.787-104.98 45.787-51.596 0-76.332-21.218-104.974-45.787-8.384-7.192-21.011-6.226-28.202 2.159-7.192 8.384-6.225 21.011 2.159 28.202zM505.02 350.213c-30.289-25.979-64.619-55.426-131.022-55.426s-100.733 29.446-131.022 55.426C214.332 374.781 189.594 396 137.996 396c-51.594 0-76.331-21.218-104.973-45.785l-.002-.002c-8.384-7.189-21.009-6.223-28.201 2.16-7.191 8.384-6.224 21.011 2.16 28.202C37.268 406.555 71.597 436 137.996 436c66.403 0 100.733-29.446 131.022-55.426 28.644-24.568 53.382-45.787 104.98-45.787 51.599 0 76.337 21.219 104.98 45.787 8.385 7.191 21.011 6.225 28.202-2.159 7.191-8.385 6.225-21.011-2.16-28.202z"/></svg>
