<svg xmlns="http://www.w3.org/2000/svg" viewBox="0 0 90 90"><g fill="#f16b6f"><path d="M47.4 77.5h-8c-.2 0-.4.2-.4.4v5.8c0 .2.2.4.4.4h8c.2 0 .4-.2.4-.4v-5.8c0-.2-.2-.4-.4-.4zm-6.7-3.1s-20.5-24-20.5-43C20.2 16.1 30.4 7.1 43.1 7 26.4 7.1 13 16.1 13 31.4c0 19 27 43 27 43h.7z"/><path d="M43.5 7c-.1 0-.1 0 0 0-.1 0-.1 0 0 0-.1 0-.1 0 0 0h-.1.1c-3.9.1-7.1 9.1-7.1 24.4 0 19 6.3 43 6.3 43h1.6s6.3-24.2 6.3-43C50.5 15 47.5 7.3 43.7 7c5.8.3 10.4 8 10.4 24.4 0 18.7-9.5 43-9.5 43h1s17.5-24.2 17.4-43C62.8 14.8 54.2 7.1 43.5 7c12.8.1 23 7.8 23.1 24.4.1 18.7-20.7 43-20.7 43h.9s27.3-24.2 27.2-43C73.9 14.7 60.3 7 43.5 7z"/><path d="M23.9 31.4c0 19 17.3 43 17.3 43h1s-9.5-24-9.5-43C32.7 16 37.5 7 43.4 7c-10.8 0-19.5 9-19.5 24.4zm16.7 44.5h5.6v.7h-5.6z"/></g></svg>