<svg xmlns="http://www.w3.org/2000/svg" width="100" height="100" fill="#fff" viewBox="0 0 100 125"><path d="M69.866 48.107c2.235-.257-8.072-17.057-17.875-22.397-6.036-5.674-4.545-12.157 1.48-13.723 5.579-1.739 13.327 2.519 18.216 11.28 7.531 11.464-.297 26.502-1.821 24.84zM61.631 66.694c.935 2.046 13.727-12.947 15.778-23.921 3.531-7.494 10.158-8.079 13.509-2.833 3.378 4.769 1.723 13.453-5.099 20.811-8.576 10.704-25.297 7.906-24.188 5.943zM41.409 64.607c-1.657 1.522 16.556 9.055 27.626 7.613 8.219 1.042 10.823 7.164 6.869 11.972-3.491 4.686-12.263 5.796-21.368 1.581-12.83-4.847-15.336-21.615-13.127-21.166zM37.146 44.729c-1.959-1.106-3.495 18.544 1.296 28.627 1.549 8.138-3.469 12.507-9.264 10.232-5.536-1.872-9.302-9.871-8.107-19.833.647-13.701 15.819-21.266 16.075-19.026zM54.733 34.532c.446-2.205-18.716 2.406-26.825 10.079-7.261 3.988-12.967.566-12.594-5.648.07-5.844 6.514-11.897 16.357-13.839 13.23-3.62 25.114 8.472 23.062 9.408z"/><path d="M69.866 48.107c2.235-.257-8.072-17.057-17.875-22.397-6.036-5.674-4.545-12.157 1.48-13.723 5.579-1.739 13.327 2.519 18.216 11.28 7.531 11.464-.297 26.502-1.821 24.84z"/></svg>
