<svg version="1" xmlns="http://www.w3.org/2000/svg" width="25" height="14" viewBox="0 0 791 429" fill="#333"><path d="M446 2.1c-10.5 2.1-20.9 9.8-25.4 18.9-3.8 7.6-4.9 13.2-4.4 23.7.3 8.4.8 10.8 3.4 16.3 4 8.6 8 13 15.1 16.7 8.3 4.4 15.2 5.6 28 5.1 9.6-.4 11.7-.8 17.6-3.6 14.3-6.7 21.6-17.4 22.5-33.2 1.6-28.2-15.2-45.3-44.1-44.9-4.5.1-10.2.5-12.7 1zM132.1 41.2c-.5 1.3-29.4 86.2-64.4 188.8-35 102.6-64.5 189.1-65.6 192.3l-2 5.7 37.6-.2 37.6-.3L88.9 386l13.7-41.5 72.5-.3 72.5-.2 13.4 42 13.4 42h37.3c20.5 0 37.3-.3 37.3-.6s-27.7-85-61.6-188.2c-33.9-103.3-62.5-190.5-63.5-194l-2-6.2H133l-.9 2.2zm71 166c14.6 45.3 26.4 82.6 26.2 83-.2.5-24.7.8-54.4.8h-54l.6-2.3C125 277 175.6 125 176 125c.3 0 12.5 37 27.1 82.2zM749.5 132.5c-9.1 2-19.3 6.1-26.3 10.7-11.8 7.7-24.5 23.2-33 40.4-2 4.1-4 7.4-4.4 7.4-.4 0-.8-12.4-.8-27.5V136l-35.2.2-35.3.3v291l35.3.3 35.2.2v-69.7c0-79.2.6-88.1 6.7-107.8 6.4-20.5 18.6-35.6 34.5-42.4 12.6-5.4 34.4-6.9 52.8-3.7 4.7.9 8.8 1.2 9.2.8.4-.4 1-16.1 1.4-34.8l.7-34.2-2.3-1.2c-6.6-3.5-27.6-4.9-38.5-2.5zM424 282v146h71V136h-71v146z"/></svg>