<svg xmlns="http://www.w3.org/2000/svg" xmlns:xlink="http://www.w3.org/1999/xlink" version="1.1" x="0px" y="0px" viewBox="0 0 90 90" enable-background="new 0 0 90 90" xml:space="preserve"><g><path fill="#000000" d="M47.4,77.5h-8c-0.2,0-0.4,0.2-0.4,0.4v5.8c0,0.2,0.2,0.4,0.4,0.4h8c0.2,0,0.4-0.2,0.4-0.4v-5.8   C47.8,77.7,47.6,77.5,47.4,77.5z"/><path fill="#000000" d="M40.7,74.4c0,0-20.5-24-20.5-43C20.2,16.1,30.4,7.1,43.1,7c-16.7,0.1-30.1,9.1-30.1,24.4c0,19,27,43,27,43   H40.7z"/><path fill="#000000" d="M43.5,7L43.5,7L43.5,7L43.5,7C43.4,7,43.4,7,43.5,7C43.4,7,43.4,7,43.5,7C43.4,7,43.4,7,43.5,7   c0,0-0.1,0-0.1,0C43.4,7,43.4,7,43.5,7c-3.9,0.1-7.1,9.1-7.1,24.4c0,19,6.3,43,6.3,43h1.6c0,0,6.3-24.2,6.3-43   C50.5,15,47.5,7.3,43.7,7c5.8,0.3,10.4,8,10.4,24.4c0,18.7-9.5,43-9.5,43h1c0,0,17.5-24.2,17.4-43C62.8,14.8,54.2,7.1,43.5,7   C43.5,7,43.5,7,43.5,7c12.8,0.1,23,7.8,23.1,24.4c0.1,18.7-20.7,43-20.7,43h0.9c0,0,27.3-24.2,27.2-43C73.9,14.7,60.3,7,43.5,7z"/><path fill="#000000" d="M23.9,31.4c0,19,17.3,43,17.3,43h1c0,0-9.5-24-9.5-43C32.7,16,37.5,7,43.4,7C32.6,7,23.9,16,23.9,31.4z"/><rect x="40.6" y="75.9" fill="#000000" width="5.6" height="0.7"/></g></svg>
